G04 Layer: TopLayer*
G04 EasyEDA v6.4.19.5, 2021-05-02T15:51:48+00:00*
G04 fa95a55a5d7b4a54880c62140e65483f,df9bcaa0b1a24b1393461ff34c98d398,10*
G04 Gerber Generator version 0.2*
G04 Scale: 100 percent, Rotated: No, Reflected: No *
G04 Dimensions in millimeters *
G04 leading zeros omitted , absolute positions ,4 integer and 5 decimal *
%FSLAX45Y45*%
%MOMM*%

%ADD11C,1.0000*%
%ADD12C,1.5240*%
%ADD13C,1.8801*%
%ADD14C,2.0000*%
%ADD15C,1.6764*%

%LPD*%
D11*
X1403350Y3175000D02*
G01*
X1504950Y3276600D01*
X2101850Y3276600D01*
X2203450Y3378200D01*
D12*
G01*
X2203450Y3378200D03*
G01*
X1403350Y3175000D03*
G01*
X1676247Y1153540D03*
G01*
X2021331Y808481D03*
D13*
G01*
X3568700Y3886200D03*
G01*
X3314700Y3886200D03*
G36*
X2115947Y3795903D02*
G01*
X2290952Y3795903D01*
X2290952Y3620896D01*
X2115947Y3620896D01*
G37*
G36*
X2369947Y3795903D02*
G01*
X2544952Y3795903D01*
X2544952Y3620896D01*
X2369947Y3620896D01*
G37*
G36*
X1861946Y3795903D02*
G01*
X2036952Y3795903D01*
X2036952Y3620896D01*
X1861946Y3620896D01*
G37*
G36*
X1607946Y3795903D02*
G01*
X1782953Y3795903D01*
X1782953Y3620896D01*
X1607946Y3620896D01*
G37*
G36*
X1353946Y3795903D02*
G01*
X1528953Y3795903D01*
X1528953Y3620896D01*
X1353946Y3620896D01*
G37*
G01*
X946150Y2921000D03*
G01*
X946150Y3175000D03*
D14*
G01*
X3200400Y3378200D03*
G01*
X3708400Y3378200D03*
D15*
G01*
X2322829Y2994660D03*
G01*
X2122170Y2994660D03*
G01*
X1921510Y2994660D03*
G01*
X1723389Y2994660D03*
G01*
X2421890Y1714500D03*
G01*
X2221229Y1714500D03*
G01*
X2023109Y1714500D03*
G01*
X1822450Y1714500D03*
G01*
X5275656Y2489200D03*
G01*
X5275656Y2235200D03*
M02*
