G04 Layer: TopSilkLayer*
G04 EasyEDA v6.4.19.5, 2021-05-02T15:51:48+00:00*
G04 fa95a55a5d7b4a54880c62140e65483f,df9bcaa0b1a24b1393461ff34c98d398,10*
G04 Gerber Generator version 0.2*
G04 Scale: 100 percent, Rotated: No, Reflected: No *
G04 Dimensions in millimeters *
G04 leading zeros omitted , absolute positions ,4 integer and 5 decimal *
%FSLAX45Y45*%
%MOMM*%

%ADD10C,0.2540*%
%ADD19C,0.2007*%
%ADD20C,0.1524*%

%LPD*%
D20*
X2196658Y1240284D02*
G01*
X2068240Y1214600D01*
X2145291Y1291650D02*
G01*
X2196658Y1240284D01*
X2068240Y1214600D02*
G01*
X2119607Y1163233D01*
X2242995Y1193944D02*
G01*
X2232040Y1197716D01*
X2217313Y1197716D01*
X2206355Y1193944D01*
X2191448Y1186581D01*
X2173130Y1168262D01*
X2165944Y1153533D01*
X2162172Y1142578D01*
X2162172Y1127851D01*
X2165944Y1116896D01*
X2180673Y1102166D01*
X2191628Y1098395D01*
X2206355Y1098395D01*
X2217313Y1102166D01*
X2232040Y1109352D01*
X2250358Y1127671D01*
X2257724Y1142578D01*
X2261494Y1153533D01*
X2261494Y1168262D01*
X2257724Y1179217D01*
X2242995Y1193944D01*
X2191448Y1120487D02*
G01*
X2191628Y1076485D01*
X2289335Y1118151D02*
G01*
X2300470Y1114559D01*
X2322380Y1114559D01*
X2245329Y1037508D01*
X3363722Y3491992D02*
G01*
X3369056Y3481578D01*
X3379470Y3471163D01*
X3389629Y3466084D01*
X3410458Y3466084D01*
X3420872Y3471163D01*
X3431286Y3481578D01*
X3436620Y3491992D01*
X3441700Y3507739D01*
X3441700Y3533647D01*
X3436620Y3549142D01*
X3431286Y3559555D01*
X3420872Y3569970D01*
X3410458Y3575050D01*
X3389629Y3575050D01*
X3379470Y3569970D01*
X3369056Y3559555D01*
X3363722Y3549142D01*
X3324352Y3491992D02*
G01*
X3324352Y3486912D01*
X3319018Y3476497D01*
X3313938Y3471163D01*
X3303524Y3466084D01*
X3282695Y3466084D01*
X3272281Y3471163D01*
X3267202Y3476497D01*
X3261868Y3486912D01*
X3261868Y3497326D01*
X3267202Y3507739D01*
X3277615Y3523234D01*
X3329431Y3575050D01*
X3256788Y3575050D01*
X1949450Y4001515D02*
G01*
X1949450Y3923537D01*
X1954529Y3908044D01*
X1964943Y3897629D01*
X1980691Y3892550D01*
X1991106Y3892550D01*
X2006600Y3897629D01*
X2017013Y3908044D01*
X2022093Y3923537D01*
X2022093Y4001515D01*
X2061718Y3975607D02*
G01*
X2061718Y3980687D01*
X2066797Y3991102D01*
X2072131Y3996436D01*
X2082545Y4001515D01*
X2103120Y4001515D01*
X2113534Y3996436D01*
X2118868Y3991102D01*
X2123947Y3980687D01*
X2123947Y3970273D01*
X2118868Y3959860D01*
X2108454Y3944365D01*
X2056384Y3892550D01*
X2129281Y3892550D01*
X551942Y3125978D02*
G01*
X541528Y3120644D01*
X531113Y3110229D01*
X526034Y3100070D01*
X526034Y3079242D01*
X531113Y3068828D01*
X541528Y3058413D01*
X551942Y3053079D01*
X567689Y3048000D01*
X593597Y3048000D01*
X609092Y3053079D01*
X619505Y3058413D01*
X629920Y3068828D01*
X635000Y3079242D01*
X635000Y3100070D01*
X629920Y3110229D01*
X619505Y3120644D01*
X609092Y3125978D01*
X546862Y3160268D02*
G01*
X541528Y3170681D01*
X526034Y3186176D01*
X635000Y3186176D01*
X3532377Y3620007D02*
G01*
X3527043Y3630421D01*
X3516629Y3640836D01*
X3506470Y3645915D01*
X3485641Y3645915D01*
X3475227Y3640836D01*
X3464813Y3630421D01*
X3459479Y3620007D01*
X3454400Y3604260D01*
X3454400Y3578352D01*
X3459479Y3562857D01*
X3464813Y3552444D01*
X3475227Y3542029D01*
X3485641Y3536950D01*
X3506470Y3536950D01*
X3516629Y3542029D01*
X3527043Y3552444D01*
X3532377Y3562857D01*
X3577081Y3645915D02*
G01*
X3634231Y3645915D01*
X3602990Y3604260D01*
X3618484Y3604260D01*
X3628897Y3599179D01*
X3634231Y3594100D01*
X3639311Y3578352D01*
X3639311Y3567937D01*
X3634231Y3552444D01*
X3623818Y3542029D01*
X3608070Y3536950D01*
X3592575Y3536950D01*
X3577081Y3542029D01*
X3571747Y3547110D01*
X3566668Y3557523D01*
X2432050Y3239515D02*
G01*
X2432050Y3161537D01*
X2437129Y3146044D01*
X2447543Y3135629D01*
X2463291Y3130550D01*
X2473706Y3130550D01*
X2489200Y3135629D01*
X2499613Y3146044D01*
X2504693Y3161537D01*
X2504693Y3239515D01*
X2538984Y3218687D02*
G01*
X2549397Y3224021D01*
X2565145Y3239515D01*
X2565145Y3130550D01*
G36*
X3213100Y4064000D02*
G01*
X3162300Y3962400D01*
X3162300Y3810000D01*
X3213100Y3733800D01*
G37*
G36*
X869950Y3327400D02*
G01*
X793750Y3276600D01*
X1123950Y3276600D01*
X1022350Y3327400D01*
G37*
D10*
X2258908Y975347D02*
G01*
X1855858Y1378399D01*
X1855858Y572297D02*
G01*
X1452808Y975347D01*
X3619500Y3733800D02*
G01*
X3568700Y3733800D01*
X3594100Y3708400D02*
G01*
X3594100Y3759200D01*
X1314450Y3860800D02*
G01*
X2584450Y3860800D01*
X1314450Y3556000D02*
G01*
X2584450Y3556000D01*
X1314450Y3860800D02*
G01*
X1314450Y3556000D01*
X2584450Y3860800D02*
G01*
X2584450Y3556000D01*
X793750Y2870200D02*
G01*
X793750Y2921000D01*
X768350Y2895600D02*
G01*
X819150Y2895600D01*
D19*
X3771900Y3505200D02*
G01*
X3136900Y3505200D01*
X3136900Y3251200D01*
X3771900Y3251200D01*
X3771900Y3505200D01*
D10*
X1642110Y1905000D02*
G01*
X2533650Y1905000D01*
X2533650Y2814320D01*
X1543050Y2814320D01*
X1543050Y1905000D01*
X1642110Y1905000D01*
G75*
G01*
X2258908Y975347D02*
G02*
X1855859Y572298I-202177J-200872D01*
G75*
G01*
X1452809Y975347D02*
G02*
X1855859Y1378400I201937J201114D01*
G75*
G01
X3721100Y3886200D02*
G03X3721100Y3886200I-279400J0D01*
G75*
G01
X1225550Y3048000D02*
G03X1225550Y3048000I-279400J0D01*
G75*
G01
X1781810Y1564640D02*
G03X1781810Y1564640I-40640J0D01*
M02*
