G04 Layer: BottomSolderMaskLayer*
G04 EasyEDA v6.4.19.5, 2021-05-02T15:51:48+00:00*
G04 fa95a55a5d7b4a54880c62140e65483f,df9bcaa0b1a24b1393461ff34c98d398,10*
G04 Gerber Generator version 0.2*
G04 Scale: 100 percent, Rotated: No, Reflected: No *
G04 Dimensions in millimeters *
G04 leading zeros omitted , absolute positions ,4 integer and 5 decimal *
%FSLAX45Y45*%
%MOMM*%

%ADD21C,1.7272*%
%ADD22C,2.0833*%
%ADD23C,2.2032*%
%ADD24C,1.8796*%

%LPD*%
D21*
G01*
X2203450Y3378200D03*
G01*
X1403350Y3175000D03*
G01*
X1676247Y1153540D03*
G01*
X2021331Y808481D03*
D22*
G01*
X3568700Y3886200D03*
G01*
X3314700Y3886200D03*
G36*
X2105913Y3610610D02*
G01*
X2105913Y3805936D01*
X2301240Y3805936D01*
X2301240Y3610610D01*
G37*
G36*
X2359913Y3610610D02*
G01*
X2359913Y3805936D01*
X2555240Y3805936D01*
X2555240Y3610610D01*
G37*
G36*
X1851913Y3610610D02*
G01*
X1851913Y3805936D01*
X2047240Y3805936D01*
X2047240Y3610610D01*
G37*
G36*
X1597913Y3610610D02*
G01*
X1597913Y3805936D01*
X1793239Y3805936D01*
X1793239Y3610610D01*
G37*
G36*
X1343913Y3610610D02*
G01*
X1343913Y3805936D01*
X1539239Y3805936D01*
X1539239Y3610610D01*
G37*
G01*
X946150Y2921000D03*
G01*
X946150Y3175000D03*
D23*
G01*
X3200400Y3378200D03*
G01*
X3708400Y3378200D03*
D24*
G01*
X2322829Y2994660D03*
G01*
X2122170Y2994660D03*
G01*
X1921510Y2994660D03*
G01*
X1723389Y2994660D03*
G01*
X2421890Y1714500D03*
G01*
X2221229Y1714500D03*
G01*
X2023109Y1714500D03*
G01*
X1822450Y1714500D03*
G01*
X5275656Y2489200D03*
G01*
X5275656Y2235200D03*
M02*
