M48
METRIC,LZ,000.000
;FILE_FORMAT=3:3
;TYPE=PLATED
;Layer: Drill PTH
;EasyEDA v6.4.19.5, 2021-05-02T15:51:48+00:00
;fa95a55a5d7b4a54880c62140e65483f,df9bcaa0b1a24b1393461ff34c98d398,10
;Gerber Generator version 0.2
;Holesize 1 = 0.701 mm
T01C0.701
;Holesize 2 = 0.788 mm
T02C0.788
;Holesize 3 = 0.901 mm
T03C0.901
;Holesize 4 = 0.915 mm
T04C0.915
;Holesize 5 = 1.000 mm
T05C1.000
%
G05
G90
T01
X016763Y011536
X020213Y008085
T02
X023228Y029947
X021222Y029947
X019215Y029947
X017234Y029947
X024219Y017145
X022212Y017145
X020231Y017145
X018225Y017145
X052757Y024892
X052757Y022352
T03
X032004Y033782
X037084Y033782
T04
X022035Y033782
X014034Y031750
X035687Y038862
X033147Y038862
X009462Y029210
X009462Y031750
T05
X022035Y037084
X024575Y037084
X019495Y037084
X016955Y037084
X014415Y037084
M30
