G04 Layer: BottomLayer*
G04 EasyEDA v6.4.19.5, 2021-05-02T15:51:48+00:00*
G04 fa95a55a5d7b4a54880c62140e65483f,df9bcaa0b1a24b1393461ff34c98d398,10*
G04 Gerber Generator version 0.2*
G04 Scale: 100 percent, Rotated: No, Reflected: No *
G04 Dimensions in millimeters *
G04 leading zeros omitted , absolute positions ,4 integer and 5 decimal *
%FSLAX45Y45*%
%MOMM*%

%ADD10C,0.2540*%
%ADD11C,1.0000*%
%ADD12C,1.5240*%
%ADD13C,1.8801*%
%ADD14C,2.0000*%
%ADD15C,1.6764*%
%ADD16C,0.4000*%
%ADD17C,0.6500*%
%ADD18C,0.3500*%

%LPD*%
D16*
X4724400Y220080D02*
G01*
X4724400Y95991D01*
X4724400Y220080D02*
G01*
X4677128Y95991D01*
X4629853Y220080D02*
G01*
X4677128Y95991D01*
X4629853Y220080D02*
G01*
X4629853Y95991D01*
X4561309Y178716D02*
G01*
X4573127Y172808D01*
X4584946Y160990D01*
X4590854Y143263D01*
X4590854Y131445D01*
X4584946Y113718D01*
X4573127Y101899D01*
X4561309Y95991D01*
X4543582Y95991D01*
X4531763Y101899D01*
X4519945Y113718D01*
X4514037Y131445D01*
X4514037Y143263D01*
X4519945Y160990D01*
X4531763Y172808D01*
X4543582Y178716D01*
X4561309Y178716D01*
X4475035Y178716D02*
G01*
X4475035Y119626D01*
X4469127Y101899D01*
X4457308Y95991D01*
X4439582Y95991D01*
X4427763Y101899D01*
X4410036Y119626D01*
X4410036Y178716D02*
G01*
X4410036Y95991D01*
X4306036Y160990D02*
G01*
X4311944Y172808D01*
X4329673Y178716D01*
X4347400Y178716D01*
X4365127Y172808D01*
X4371035Y160990D01*
X4365127Y149171D01*
X4353308Y143263D01*
X4323763Y137355D01*
X4311944Y131445D01*
X4306036Y119626D01*
X4306036Y113718D01*
X4311944Y101899D01*
X4329673Y95991D01*
X4347400Y95991D01*
X4365127Y101899D01*
X4371035Y113718D01*
X4267037Y143263D02*
G01*
X4196128Y143263D01*
X4196128Y155082D01*
X4202036Y166900D01*
X4207944Y172808D01*
X4219762Y178716D01*
X4237492Y178716D01*
X4249308Y172808D01*
X4261126Y160990D01*
X4267037Y143263D01*
X4267037Y131445D01*
X4261126Y113718D01*
X4249308Y101899D01*
X4237492Y95991D01*
X4219762Y95991D01*
X4207944Y101899D01*
X4196128Y113718D01*
X4030672Y220080D02*
G01*
X4042491Y214172D01*
X4054309Y202354D01*
X4060217Y190535D01*
X4066128Y172808D01*
X4066128Y143263D01*
X4060217Y125536D01*
X4054309Y113718D01*
X4042491Y101899D01*
X4030672Y95991D01*
X4007035Y95991D01*
X3995219Y101899D01*
X3983400Y113718D01*
X3977490Y125536D01*
X3971582Y143263D01*
X3971582Y172808D01*
X3977490Y190535D01*
X3983400Y202354D01*
X3995219Y214172D01*
X4007035Y220080D01*
X4030672Y220080D01*
X3932582Y178716D02*
G01*
X3932582Y54627D01*
X3932582Y160990D02*
G01*
X3920764Y172808D01*
X3908945Y178716D01*
X3891219Y178716D01*
X3879400Y172808D01*
X3867581Y160990D01*
X3861673Y143263D01*
X3861673Y131445D01*
X3867581Y113718D01*
X3879400Y101899D01*
X3891219Y95991D01*
X3908945Y95991D01*
X3920764Y101899D01*
X3932582Y113718D01*
X3804945Y220080D02*
G01*
X3804945Y119626D01*
X3799037Y101899D01*
X3787218Y95991D01*
X3775400Y95991D01*
X3822672Y178716D02*
G01*
X3781308Y178716D01*
X3736400Y220080D02*
G01*
X3730490Y214172D01*
X3724582Y220080D01*
X3730490Y225991D01*
X3736400Y220080D01*
X3730490Y178716D02*
G01*
X3730490Y95991D01*
X3614671Y160990D02*
G01*
X3626490Y172808D01*
X3638308Y178716D01*
X3656035Y178716D01*
X3667853Y172808D01*
X3679672Y160990D01*
X3685580Y143263D01*
X3685580Y131445D01*
X3679672Y113718D01*
X3667853Y101899D01*
X3656035Y95991D01*
X3638308Y95991D01*
X3626490Y101899D01*
X3614671Y113718D01*
X3504763Y178716D02*
G01*
X3504763Y95991D01*
X3504763Y160990D02*
G01*
X3516581Y172808D01*
X3528400Y178716D01*
X3546127Y178716D01*
X3557945Y172808D01*
X3569764Y160990D01*
X3575672Y143263D01*
X3575672Y131445D01*
X3569764Y113718D01*
X3557945Y101899D01*
X3546127Y95991D01*
X3528400Y95991D01*
X3516581Y101899D01*
X3504763Y113718D01*
X3465763Y220080D02*
G01*
X3465763Y95991D01*
X3253036Y202354D02*
G01*
X3264855Y214172D01*
X3282581Y220080D01*
X3306218Y220080D01*
X3323945Y214172D01*
X3335764Y202354D01*
X3335764Y190535D01*
X3329853Y178716D01*
X3323945Y172808D01*
X3312126Y166900D01*
X3276673Y155082D01*
X3264855Y149171D01*
X3258944Y143263D01*
X3253036Y131445D01*
X3253036Y113718D01*
X3264855Y101899D01*
X3282581Y95991D01*
X3306218Y95991D01*
X3323945Y101899D01*
X3335764Y113718D01*
X3214037Y143263D02*
G01*
X3143128Y143263D01*
X3143128Y155082D01*
X3149036Y166900D01*
X3154946Y172808D01*
X3166762Y178716D01*
X3184491Y178716D01*
X3196308Y172808D01*
X3208126Y160990D01*
X3214037Y143263D01*
X3214037Y131445D01*
X3208126Y113718D01*
X3196308Y101899D01*
X3184491Y95991D01*
X3166762Y95991D01*
X3154946Y101899D01*
X3143128Y113718D01*
X3104126Y178716D02*
G01*
X3104126Y95991D01*
X3104126Y155082D02*
G01*
X3086399Y172808D01*
X3074581Y178716D01*
X3056854Y178716D01*
X3045035Y172808D01*
X3039127Y155082D01*
X3039127Y95991D01*
X2935127Y160990D02*
G01*
X2941035Y172808D01*
X2958764Y178716D01*
X2976491Y178716D01*
X2994218Y172808D01*
X3000126Y160990D01*
X2994218Y149171D01*
X2982399Y143263D01*
X2952854Y137355D01*
X2941035Y131445D01*
X2935127Y119626D01*
X2935127Y113718D01*
X2941035Y101899D01*
X2958764Y95991D01*
X2976491Y95991D01*
X2994218Y101899D01*
X3000126Y113718D01*
X2866583Y178716D02*
G01*
X2878399Y172808D01*
X2890217Y160990D01*
X2896128Y143263D01*
X2896128Y131445D01*
X2890217Y113718D01*
X2878399Y101899D01*
X2866583Y95991D01*
X2848853Y95991D01*
X2837035Y101899D01*
X2825219Y113718D01*
X2819308Y131445D01*
X2819308Y143263D01*
X2825219Y160990D01*
X2837035Y172808D01*
X2848853Y178716D01*
X2866583Y178716D01*
X2780309Y178716D02*
G01*
X2780309Y95991D01*
X2780309Y143263D02*
G01*
X2774398Y160990D01*
X2762582Y172808D01*
X2750764Y178716D01*
X2733037Y178716D01*
D17*
X4628062Y574989D02*
G01*
X4711700Y355445D01*
X4628062Y574989D02*
G01*
X4544428Y355445D01*
X4680336Y428627D02*
G01*
X4575789Y428627D01*
X4475426Y574989D02*
G01*
X4475426Y355445D01*
X4475426Y574989D02*
G01*
X4402246Y574989D01*
X4370882Y564535D01*
X4349973Y543626D01*
X4339518Y522719D01*
X4329064Y491355D01*
X4329064Y439082D01*
X4339518Y407718D01*
X4349973Y386808D01*
X4370882Y365899D01*
X4402246Y355445D01*
X4475426Y355445D01*
X4260062Y574989D02*
G01*
X4260062Y355445D01*
X4260062Y574989D02*
G01*
X4113700Y355445D01*
X4113700Y574989D02*
G01*
X4113700Y355445D01*
X3898336Y543626D02*
G01*
X3919245Y564535D01*
X3950609Y574989D01*
X3992427Y574989D01*
X4023791Y564535D01*
X4044701Y543626D01*
X4044701Y522719D01*
X4034246Y501810D01*
X4023791Y491355D01*
X4002882Y480900D01*
X3940154Y459991D01*
X3919245Y449536D01*
X3908790Y439082D01*
X3898336Y418172D01*
X3898336Y386808D01*
X3919245Y365899D01*
X3950609Y355445D01*
X3992427Y355445D01*
X4023791Y365899D01*
X4044701Y386808D01*
X3829337Y449536D02*
G01*
X3641153Y449536D01*
X3561699Y522719D02*
G01*
X3561699Y533173D01*
X3551245Y554080D01*
X3540790Y564535D01*
X3519881Y574989D01*
X3478062Y574989D01*
X3457153Y564535D01*
X3446701Y554080D01*
X3436246Y533173D01*
X3436246Y512264D01*
X3446701Y491355D01*
X3467608Y459991D01*
X3572154Y355445D01*
X3425791Y355445D01*
X3231337Y543626D02*
G01*
X3241791Y564535D01*
X3273155Y574989D01*
X3294062Y574989D01*
X3325426Y564535D01*
X3346335Y533173D01*
X3356790Y480900D01*
X3356790Y428627D01*
X3346335Y386808D01*
X3325426Y365899D01*
X3294062Y355445D01*
X3283607Y355445D01*
X3252246Y365899D01*
X3231337Y386808D01*
X3220882Y418172D01*
X3220882Y428627D01*
X3231337Y459991D01*
X3252246Y480900D01*
X3283607Y491355D01*
X3294062Y491355D01*
X3325426Y480900D01*
X3346335Y459991D01*
X3356790Y428627D01*
X3151880Y533173D02*
G01*
X3130971Y543626D01*
X3099610Y574989D01*
X3099610Y355445D01*
X2967880Y574989D02*
G01*
X2999244Y564535D01*
X3020153Y533173D01*
X3030608Y480900D01*
X3030608Y449536D01*
X3020153Y397263D01*
X2999244Y365899D01*
X2967880Y355445D01*
X2946971Y355445D01*
X2915610Y365899D01*
X2894700Y397263D01*
X2884246Y449536D01*
X2884246Y480900D01*
X2894700Y533173D01*
X2915610Y564535D01*
X2946971Y574989D01*
X2967880Y574989D01*
D18*
X1398628Y4101962D02*
G01*
X1389537Y4111053D01*
X1384990Y4124690D01*
X1384990Y4142872D01*
X1389537Y4156509D01*
X1398628Y4165600D01*
X1407718Y4165600D01*
X1416809Y4161053D01*
X1421353Y4156509D01*
X1425900Y4147418D01*
X1434990Y4120146D01*
X1439537Y4111053D01*
X1444081Y4106509D01*
X1453172Y4101962D01*
X1466809Y4101962D01*
X1475900Y4111053D01*
X1480446Y4124690D01*
X1480446Y4142872D01*
X1475900Y4156509D01*
X1466809Y4165600D01*
X1407718Y4003781D02*
G01*
X1398628Y4008328D01*
X1389537Y4017418D01*
X1384990Y4026509D01*
X1384990Y4044690D01*
X1389537Y4053781D01*
X1398628Y4062872D01*
X1407718Y4067418D01*
X1421353Y4071962D01*
X1444081Y4071962D01*
X1457718Y4067418D01*
X1466809Y4062872D01*
X1475900Y4053781D01*
X1480446Y4044690D01*
X1480446Y4026509D01*
X1475900Y4017418D01*
X1466809Y4008328D01*
X1457718Y4003781D01*
X1384990Y3973781D02*
G01*
X1480446Y3973781D01*
X1384990Y3910144D02*
G01*
X1448628Y3973781D01*
X1425900Y3951053D02*
G01*
X1480446Y3910144D01*
X1639928Y4127362D02*
G01*
X1630837Y4136453D01*
X1626290Y4150090D01*
X1626290Y4168272D01*
X1630837Y4181909D01*
X1639928Y4191000D01*
X1649018Y4191000D01*
X1658109Y4186453D01*
X1662653Y4181909D01*
X1667200Y4172818D01*
X1676290Y4145546D01*
X1680837Y4136453D01*
X1685381Y4131909D01*
X1694472Y4127362D01*
X1708109Y4127362D01*
X1717200Y4136453D01*
X1721746Y4150090D01*
X1721746Y4168272D01*
X1717200Y4181909D01*
X1708109Y4191000D01*
X1626290Y4097362D02*
G01*
X1721746Y4097362D01*
X1626290Y4097362D02*
G01*
X1626290Y4065544D01*
X1630837Y4051909D01*
X1639928Y4042818D01*
X1649018Y4038272D01*
X1662653Y4033728D01*
X1685381Y4033728D01*
X1699018Y4038272D01*
X1708109Y4042818D01*
X1717200Y4051909D01*
X1721746Y4065544D01*
X1721746Y4097362D01*
X1626290Y4003728D02*
G01*
X1721746Y4003728D01*
X1626290Y3946453D02*
G01*
X1630837Y3955544D01*
X1639928Y3964635D01*
X1649018Y3969181D01*
X1662653Y3973728D01*
X1685381Y3973728D01*
X1699018Y3969181D01*
X1708109Y3964635D01*
X1717200Y3955544D01*
X1721746Y3946453D01*
X1721746Y3928272D01*
X1717200Y3919181D01*
X1708109Y3910091D01*
X1699018Y3905544D01*
X1685381Y3901000D01*
X1662653Y3901000D01*
X1649018Y3905544D01*
X1639928Y3910091D01*
X1630837Y3919181D01*
X1626290Y3928272D01*
X1626290Y3946453D01*
X1928418Y4122818D02*
G01*
X1919328Y4127362D01*
X1910237Y4136453D01*
X1905690Y4145546D01*
X1905690Y4163728D01*
X1910237Y4172818D01*
X1919328Y4181909D01*
X1928418Y4186453D01*
X1942053Y4191000D01*
X1964781Y4191000D01*
X1978418Y4186453D01*
X1987509Y4181909D01*
X1996600Y4172818D01*
X2001146Y4163728D01*
X2001146Y4145546D01*
X1996600Y4136453D01*
X1987509Y4127362D01*
X1978418Y4122818D01*
X1964781Y4122818D01*
X1964781Y4145546D02*
G01*
X1964781Y4122818D01*
X1905690Y4092818D02*
G01*
X2001146Y4092818D01*
X1905690Y4092818D02*
G01*
X2001146Y4029181D01*
X1905690Y4029181D02*
G01*
X2001146Y4029181D01*
X1905690Y3999181D02*
G01*
X2001146Y3999181D01*
X1905690Y3999181D02*
G01*
X1905690Y3967363D01*
X1910237Y3953728D01*
X1919328Y3944635D01*
X1928418Y3940091D01*
X1942053Y3935544D01*
X1964781Y3935544D01*
X1978418Y3940091D01*
X1987509Y3944635D01*
X1996600Y3953728D01*
X2001146Y3967363D01*
X2001146Y3999181D01*
X2857500Y3758509D02*
G01*
X2857500Y3663053D01*
X2857500Y3663053D02*
G01*
X2802953Y3663053D01*
X2772953Y3758509D02*
G01*
X2772953Y3663053D01*
X2772953Y3758509D02*
G01*
X2713863Y3758509D01*
X2772953Y3713053D02*
G01*
X2736590Y3713053D01*
X2772953Y3663053D02*
G01*
X2713863Y3663053D01*
X2683863Y3758509D02*
G01*
X2683863Y3663053D01*
X2683863Y3758509D02*
G01*
X2652044Y3758509D01*
X2638409Y3753962D01*
X2629319Y3744871D01*
X2624772Y3735781D01*
X2620228Y3722146D01*
X2620228Y3699418D01*
X2624772Y3685781D01*
X2629319Y3676690D01*
X2638409Y3667599D01*
X2652044Y3663053D01*
X2683863Y3663053D01*
X2362200Y4304609D02*
G01*
X2325837Y4209153D01*
X2289472Y4304609D02*
G01*
X2325837Y4209153D01*
X2204928Y4259153D02*
G01*
X2214018Y4268246D01*
X2223109Y4272790D01*
X2236744Y4272790D01*
X2245837Y4268246D01*
X2254928Y4259153D01*
X2259472Y4245518D01*
X2259472Y4236427D01*
X2254928Y4222790D01*
X2245837Y4213699D01*
X2236744Y4209153D01*
X2223109Y4209153D01*
X2214018Y4213699D01*
X2204928Y4222790D01*
X2120381Y4259153D02*
G01*
X2129472Y4268246D01*
X2138563Y4272790D01*
X2152200Y4272790D01*
X2161291Y4268246D01*
X2170381Y4259153D01*
X2174928Y4245518D01*
X2174928Y4236427D01*
X2170381Y4222790D01*
X2161291Y4213699D01*
X2152200Y4209153D01*
X2138563Y4209153D01*
X2129472Y4213699D01*
X2120381Y4222790D01*
D11*
X2203450Y3708400D02*
G01*
X2203450Y3378200D01*
X946150Y3175000D02*
G01*
X1403350Y3175000D01*
X1949450Y3708400D02*
G01*
X1949450Y3810000D01*
X2254250Y4114800D01*
X3340100Y4114800D01*
X3568700Y3886200D01*
X2203450Y3708400D02*
G01*
X2203450Y3860800D01*
X2305050Y3962400D01*
X3238500Y3962400D01*
X3314700Y3886200D01*
X3568700Y3886200D02*
G01*
X3568700Y3517900D01*
X3708400Y3378200D01*
X3314700Y3886200D02*
G01*
X3314700Y3492500D01*
X3200400Y3378200D01*
X1949450Y3708400D02*
G01*
X1949450Y3492500D01*
X1921507Y3464557D01*
X1921507Y2994657D01*
X946150Y2921000D02*
G01*
X1649735Y2921000D01*
X1723392Y2994657D01*
X2023107Y1714500D02*
G01*
X2021334Y808484D01*
X1676250Y1153540D02*
G01*
X1676250Y1568295D01*
X1822450Y1714500D01*
X1695450Y3708400D02*
G01*
X1695450Y3594100D01*
X1504950Y3403600D01*
X704850Y3403600D01*
X463550Y3162300D01*
X463550Y1435100D01*
X1517650Y381000D01*
X2317750Y381000D01*
X2546350Y609600D01*
X2546350Y1041400D01*
X2221235Y1366520D01*
X2221235Y1714500D01*
X1441450Y3708400D02*
G01*
X577850Y3708400D01*
X184150Y3314700D01*
X184150Y1282700D01*
X1327150Y139700D01*
X2419350Y139700D01*
X2762250Y482600D01*
X2762250Y1374142D01*
X2421892Y1714500D01*
X2457450Y3708400D02*
G01*
X2457450Y3129279D01*
X2322835Y2994657D01*
X2203450Y3378200D02*
G01*
X2122164Y3296920D01*
X2122164Y2994657D01*
D10*
X1098550Y2844800D02*
G01*
X4832350Y2844800D01*
X4832350Y1866900D01*
X1098550Y1866900D01*
X1098550Y2844800D01*
D12*
G01*
X2203450Y3378200D03*
G01*
X1403350Y3175000D03*
G01*
X1676247Y1153540D03*
G01*
X2021331Y808481D03*
D13*
G01*
X3568700Y3886200D03*
G01*
X3314700Y3886200D03*
G36*
X2115947Y3795903D02*
G01*
X2290952Y3795903D01*
X2290952Y3620896D01*
X2115947Y3620896D01*
G37*
G36*
X2369947Y3795903D02*
G01*
X2544952Y3795903D01*
X2544952Y3620896D01*
X2369947Y3620896D01*
G37*
G36*
X1861946Y3795903D02*
G01*
X2036952Y3795903D01*
X2036952Y3620896D01*
X1861946Y3620896D01*
G37*
G36*
X1607946Y3795903D02*
G01*
X1782953Y3795903D01*
X1782953Y3620896D01*
X1607946Y3620896D01*
G37*
G36*
X1353946Y3795903D02*
G01*
X1528953Y3795903D01*
X1528953Y3620896D01*
X1353946Y3620896D01*
G37*
G01*
X946150Y2921000D03*
G01*
X946150Y3175000D03*
D14*
G01*
X3200400Y3378200D03*
G01*
X3708400Y3378200D03*
D15*
G01*
X2322829Y2994660D03*
G01*
X2122170Y2994660D03*
G01*
X1921510Y2994660D03*
G01*
X1723389Y2994660D03*
G01*
X2421890Y1714500D03*
G01*
X2221229Y1714500D03*
G01*
X2023109Y1714500D03*
G01*
X1822450Y1714500D03*
G01*
X5275656Y2489200D03*
G01*
X5275656Y2235200D03*
M02*
